<?xml version="1.0" encoding="utf-8" ?>
<svg baseProfile="full" height="200mm" version="1.1" viewBox="0,0,200,200" width="200mm" xmlns="http://www.w3.org/2000/svg" xmlns:ev="http://www.w3.org/2001/xml-events" xmlns:xlink="http://www.w3.org/1999/xlink"><defs /><rect fill="#1a1a1a" height="200" width="200" x="0" y="0" /><text alignment-baseline="middle" fill="#e1ed5e" style="dominant-baseline: central; font-size:9.0px; font-family:Arial;" text-anchor="middle" x="100.0" y="100.0">2019</text><line stroke="#e1ed5e" stroke-width="0.3" x1="100.0" x2="100.0" y1="15.0" y2="10.0" /><path d="M 100.0 14.0 a86.0,86.0 0 0,1 42.46469731375804,11.215312516191453" fill="none" id="id37" stroke="none" /><text fill="#e1ed5e" style="font-size:6.75px; font-family:Arial;" text-anchor="middle"><textPath startOffset="22.20632615414155" xlink:href="#id37">January</textPath></text><line stroke="#e1ed5e" stroke-width="0.3" x1="143.23703022742887" x2="145.7803849466894" y1="26.81831364943548" y2="22.513508569990506" /><path d="M 143.74570117128098 25.957352633546492 a86.0,86.0 0 0,1 28.547481713284135,27.462654790039103" fill="none" id="id38" stroke="none" /><text fill="#e1ed5e" style="font-size:6.75px; font-family:Arial;" text-anchor="middle"><textPath startOffset="19.985693538727396" xlink:href="#id38">February</textPath></text><line stroke="#e1ed5e" stroke-width="0.3" x1="172.23445277983987" x2="176.4835382374775" y1="55.19839476539836" y2="52.563006222186495" /><path d="M 173.08426987136738 54.67131705675599 a86.0,86.0 0 0,1 12.851231095245387,41.99856678651699" fill="none" id="id39" stroke="none" /><text fill="#e1ed5e" style="font-size:6.75px; font-family:Arial;" text-anchor="middle"><textPath startOffset="22.20632615414155" xlink:href="#id39">March</textPath></text><path d="M 120.08093135843002 93.85539295169968 l 25.94156504264421 -7.937914858618146 a48.12886450193614,48.12886450193614 0 0,0 0.23558873569090302,0.7942880993156751 l -26.074359675446818 7.49019737255594" fill="#ffdb14" stroke="none" /><path d="M 120.98425023603335 99.18683210126433 l 52.5718150380397 -2.0372284873821593 a73.61127290138168,73.61127290138168 0 0,0 0.03816676337424469,1.2665690659673525 l -52.59909349586959 1.1319892739898079" fill="#3cffa9" stroke="none" /><line stroke="#e1ed5e" stroke-width="0.3" x1="184.98032266829074" x2="189.97916517819016" y1="98.17113171792111" y2="98.06355123074" /><path d="M 185.9800911702706 98.14961562048488 a86.0,86.0 0 0,1 -9.607161424134198,41.387399972396054" fill="none" id="id40" stroke="none" /><text fill="#e1ed5e" style="font-size:6.75px; font-family:Arial;" text-anchor="middle"><textPath startOffset="21.466115282336823" xlink:href="#id40">April</textPath></text><path d="M 120.92983693683757 101.71520430193887 l 29.04678929655701 2.380390163063274 a50.144162807790295,50.144162807790295 0 0,0 -0.07790350266439151,0.8596586603073845 l -29.00151119761554 -2.880030211919229" fill="#fffa17" stroke="none" /><path d="M 120.02730092923936 106.31721596034902 l 21.930306896352125 6.91748155332929 a43.995432407520425,43.995432407520425 0 0,0 -0.2340300342767126,0.7202703836980038 l -21.807984611059165 -7.293950837005089" fill="#ff970d" stroke="none" /><line stroke="#e1ed5e" stroke-width="0.3" x1="174.80103733775053" x2="179.2010983576182" y1="140.37084112569926" y2="142.7455964860345" /><path d="M 175.68104954172406 140.8457921977663 a86.0,86.0 0 0,1 -30.038265399797805,32.042727171017184" fill="none" id="id41" stroke="none" /><text fill="#e1ed5e" style="font-size:6.75px; font-family:Arial;" text-anchor="middle"><textPath startOffset="22.206326154141568" xlink:href="#id41">May</textPath></text><path d="M 117.14729908036423 112.12312394758627 l 11.872660260030706 8.393959377821542 a35.540241252696966,35.540241252696966 0 0,0 -0.3574674826864676,0.49649106846193725 l -11.726412984968636 -8.597084051734612" fill="#ff0000" stroke="none" /><path d="M 116.498646956653 112.99209946851258 l 27.650163587950036 21.77352340462271 a56.194003294482584,56.194003294482584 0 0,0 -0.6049741711815733,0.7547982975802687 l -27.27127150471361 -22.246249535781228" fill="#a9ff21" stroke="none" /><path d="M 116.27256486870786 113.27417163493432 l 16.019742304497488 13.06793431847008 a41.67372851844472,41.67372851844472 0 0,0 -0.45822050544092396,0.5519561172143918 l -15.79242579916302 -13.341751692798242" fill="#ff6f0a" stroke="none" /><path d="M 115.80600337817218 113.82643327865902 l 11.080482828384817 9.692744766432305 a35.721630372256044,35.721630372256044 0 0,0 -0.4088275112430893,0.4593220428323009 l -10.91199646749339 -9.882040979005472" fill="#ff0300" stroke="none" /><path d="M 114.81725581225074 114.88116024355365 l 24.695367645013636 24.801874777317188 a55.99991679407408,55.99991679407408 0 0,0 -0.6889324367000286,0.6742653903679126 l -24.264785255937813 -25.223290270607674" fill="#acff21" stroke="none" /><path d="M 114.55890576462653 115.13401014063108 l 23.982543629822597 24.92989956523515 a55.592806929895936,55.592806929895936 0 0,0 -0.695344678386383,0.6574917946408314 l -23.54986311704541 -25.339025996621903" fill="#b2ff20" stroke="none" /><path d="M 112.92097659922987 116.55440617244103 l 30.231785038107695 38.73308220901736 a70.13463629661717,70.13463629661717 0 0,0 -0.9580767757646159,0.7346124171667542 l -29.560579533849587 -39.24773396801149" fill="#37ff77" stroke="none" /><line stroke="#e1ed5e" stroke-width="0.3" x1="143.8653032363475" x2="146.44561519142675" y1="172.8068346515853" y2="177.08958963109032" /><path d="M 144.38136562736335 173.6633856474863 a86.0,86.0 0 0,1 -40.68145358897372,12.25698825130547" fill="none" id="id42" stroke="none" /><text fill="#e1ed5e" style="font-size:6.75px; font-family:Arial;" text-anchor="middle"><textPath startOffset="21.466115282336833" xlink:href="#id42">June</textPath></text><path d="M 110.8373102113329 117.98757091392108 l 32.51193063399873 53.96271274176323 a84.0,84.0 0 0,0 -1.2449285158864716,0.735525710825002 l -31.578234247083873 -54.514357024881974" fill="#4dd2ff" stroke="none" /><line stroke="#e1ed5e" stroke-width="0.3" x1="102.19456741930631" x2="102.32365962044197" y1="184.97166512339345" y2="189.96999836594603" /><path d="M 102.22038585953345 185.97133177190398 a86.0,86.0 0 0,1 -42.740103519485714,-10.115201625700543" fill="none" id="id43" stroke="none" /><text fill="#e1ed5e" style="font-size:6.75px; font-family:Arial;" text-anchor="middle"><textPath startOffset="22.20632615414155" xlink:href="#id43">July</textPath></text><line stroke="#e1ed5e" stroke-width="0.3" x1="58.666819895761336" x2="56.23545636021788" y1="174.27360380694188" y2="178.64263932499728" /><path d="M 58.180547188652646 175.14741091055294 a86.0,86.0 0 0,1 -31.652253787137756,-30.449443065178592" fill="none" id="id44" stroke="none" /><text fill="#e1ed5e" style="font-size:6.75px; font-family:Arial;" text-anchor="middle"><textPath startOffset="22.20632615414155" xlink:href="#id44">August</textPath></text><path d="M 85.70375840098266 115.38237550388516 l -27.513145855706373 29.603412751133657 a61.4145424493629,61.4145424493629 0 0,0 -0.7681618832729361,-0.7263450068818319 l 28.018643573370127 -29.125433107505895" fill="#61ff29" stroke="none" /><path d="M 85.44109423537348 115.13401014063109 l -26.387472133482024 27.429827303644327 a59.061714510818376,59.061714510818376 0 0,0 -0.726599845554151,-0.7111308778703334 l 26.85572193141197 -26.971546322851424" fill="#81ff25" stroke="none" /><line stroke="#e1ed5e" stroke-width="0.3" x1="26.63291911575756" x2="22.317208475507996" y1="142.92168965132927" y2="145.44649492493687" /><path d="M 25.769776987707644 143.4266507060508 a86.0,86.0 0 0,1 -11.730757126820373,-40.83630448921669" fill="none" id="id45" stroke="none" /><text fill="#e1ed5e" style="font-size:6.75px; font-family:Arial;" text-anchor="middle"><textPath startOffset="21.46611528233685" xlink:href="#id45">September</textPath></text><line stroke="#e1ed5e" stroke-width="0.3" x1="15.007084014347285" x2="10.007500721073583" y1="101.09737516637583" y2="101.16192664675087" /><path d="M 14.007167355692545 101.11028546245083 a86.0,86.0 0 0,1 10.666146001902534,-42.60595125391555" fill="none" id="id46" stroke="none" /><text fill="#e1ed5e" style="font-size:6.75px; font-family:Arial;" text-anchor="middle"><textPath startOffset="22.20632615414155" xlink:href="#id46">October</textPath></text><line stroke="#e1ed5e" stroke-width="0.3" x1="26.266209847984243" x2="21.928928074336255" y1="57.711370442889674" y2="55.22380399835377" /><path d="M 25.398753493254645 57.213857153982495 a86.0,86.0 0 0,1 29.58750427330803,-30.492523968695096" fill="none" id="id47" stroke="none" /><text fill="#e1ed5e" style="font-size:6.75px; font-family:Arial;" text-anchor="middle"><textPath startOffset="21.46611528233685" xlink:href="#id47">November</textPath></text><line stroke="#e1ed5e" stroke-width="0.3" x1="56.762969772571076" x2="54.21961505331055" y1="26.818313649435495" y2="22.513508569990535" /><path d="M 56.25429882871897 25.957352633546506 a86.0,86.0 0 0,1 42.265352541879196,-11.944610805530505" fill="none" id="id48" stroke="none" /><text fill="#e1ed5e" style="font-size:6.75px; font-family:Arial;" text-anchor="middle"><textPath startOffset="22.20632615414155" xlink:href="#id48">December</textPath></text></svg>