<?xml version="1.0" encoding="utf-8" ?>
<svg baseProfile="full" height="200mm" version="1.1" viewBox="0,0,200,200" width="200mm" xmlns="http://www.w3.org/2000/svg" xmlns:ev="http://www.w3.org/2001/xml-events" xmlns:xlink="http://www.w3.org/1999/xlink"><defs /><rect fill="#1a1a1a" height="200" width="200" x="0" y="0" /><text alignment-baseline="middle" fill="#e1ed5e" style="dominant-baseline: central; font-size:9.0px; font-family:Arial;" text-anchor="middle" x="100.0" y="100.0">2020</text><line stroke="#e1ed5e" stroke-width="0.3" x1="100.0" x2="100.0" y1="15.0" y2="10.0" /><path d="M 100.0 14.0 a86.0,86.0 0 0,1 42.35913384403234,11.155469271406648" fill="none" id="id49" stroke="none" /><text fill="#e1ed5e" style="font-size:6.75px; font-family:Arial;" text-anchor="middle"><textPath startOffset="22.145653131862478" xlink:href="#id49">January</textPath></text><line stroke="#e1ed5e" stroke-width="0.3" x1="143.13028292997686" x2="145.6673583964461" y1="26.7553504044142" y2="22.446841604673864" /><path d="M 143.63769802327073 25.89364864446614 a86.0,86.0 0 0,1 29.32050498858742,28.57503671076993" fill="none" id="id50" stroke="none" /><text fill="#e1ed5e" style="font-size:6.75px; font-family:Arial;" text-anchor="middle"><textPath startOffset="20.669276256404974" xlink:href="#id50">February</textPath></text><line stroke="#e1ed5e" stroke-width="0.3" x1="172.87174338648825" x2="177.1583165268699" y1="56.24261187166439" y2="53.66864786411523" /><path d="M 173.72905801456457 55.72781907015455 a86.0,86.0 0 0,1 12.242430191666344,42.057860355516425" fill="none" id="id51" stroke="none" /><text fill="#e1ed5e" style="font-size:6.75px; font-family:Arial;" text-anchor="middle"><textPath startOffset="22.145653131862474" xlink:href="#id51">March</textPath></text><path d="M 120.35273937422433 94.82641323984039 l 23.865456545716068 -6.066505728779166 a45.6244290876514,45.6244290876514 0 0,0 0.18643548149016373,0.7607203857439118 l -23.966079553722523 5.655929518427159" fill="#ffcb12" stroke="none" /><path d="M 120.51834098615036 95.52812308129327 l 24.307192664733165 -5.2976395074703255 a45.87779330229207,45.87779330229207 0 0,0 0.16110159525893092,0.7709294527479776 l -24.39455197081646 4.879593603436944" fill="#ffcf13" stroke="none" /><path d="M 120.65975698304385 96.23510406497455 l 27.134998253827213 -4.944900596197879 a48.58188122919617,48.58188122919617 0 0,0 0.14247257247955436,0.8217439374492743 l -27.215885643799 4.4783636258280115" fill="#fff817" stroke="none" /><line stroke="#e1ed5e" stroke-width="0.3" x1="184.99686870605535" x2="189.99668451229388" y1="99.2704041080226" y2="99.22748670261217" /><path d="M 185.99683186730306 99.26182062694052 a86.0,86.0 0 0,1 -10.086455211305974,41.156179273409016" fill="none" id="id52" stroke="none" /><text fill="#e1ed5e" style="font-size:6.75px; font-family:Arial;" text-anchor="middle"><textPath startOffset="21.40746469413373" xlink:href="#id52">April</textPath></text><path d="M 120.99922638620191 99.81974689727618 l 24.739626391165878 -0.21235993818163296 a45.74053780170948,45.74053780170948 0 0,0 0.0,0.7852260818109167 l -24.739626391165878 -0.21235993818162996" fill="#ffcd13" stroke="none" /><path d="M 120.99303781780057 100.54070618675476 l 30.689870777035072 0.7904622067500935 a51.70004884053788,51.70004884053788 0 0,0 -0.030466870794286456,0.8870097009035862 l -30.671779219243938 -1.3171781722177904" fill="#d8ff1c" stroke="none" /><path d="M 120.9064616781168 101.97986365728391 l 14.105028934584992 1.3357609050484889 a35.16813673144552,35.16813673144552 0 0,0 -0.06207612807201551,0.6005302281729473 l -14.08002041403131 -1.5776956555043677" fill="#ff1e03" stroke="none" /><path d="M 120.86939407059847 102.33845913500097 l 14.499754044456981 1.6247276842741367 a35.59049716074793,35.59049716074793 0 0,0 -0.07324509696518522,0.6065744750129123 l -14.469726861232132 -1.8733958362104577" fill="#ff2503" stroke="none" /><path d="M 120.82617615685814 102.69636545807757 l 15.676770725450362 2.029671830293546 a36.80761551015917,36.80761551015917 0 0,0 -0.08650750752161185,0.6259252307597014 l -15.639618701373541 -2.2984853692533322" fill="#ff3a05" stroke="none" /><path d="M 120.77682067341334 103.0534771498775 l 15.28995024206854 2.2470961472302076 a36.45419100114363,36.45419100114363 0 0,0 -0.09630591057381162,0.6183530310826441 l -15.249122839356462 -2.509237360244302" fill="#ff3405" stroke="none" /><path d="M 120.592083275326 104.11899336999214 l 18.270208385961766 3.6545533642204937 a39.63213017232337,39.63213017232337 0 0,0 -0.13916971446732856,0.6659774637299087 l -18.204780960670075 -3.9676472792358117" fill="#ff6a09" stroke="none" /><path d="M 120.51834098615036 104.47187691870673 l 25.542592373943517 5.566889124129081 a47.142193475333784,47.142193475333784 0 0,0 -0.1791159524608949,0.7892179356538787 l -25.44326555992496 -6.0045413937219765" fill="#ffe315" stroke="none" /><path d="M 120.35273937422433 105.17358676015961 l 35.206032969083665 8.949235908620071 a57.32566008716622,57.32566008716622 0 0,0 -0.2506237436102039,0.951659176480191 l -35.04721974466873 -9.552275589473066" fill="#8aff24" stroke="none" /><path d="M 120.05942366710727 106.21446072829308 l 38.942216769632516 12.064398299956556 a61.76819781733113,61.76819781733113 0 0,0 -0.32247494874427834,1.010148183978467 l -38.729377105110984 -12.731115517626407" fill="#51ff2b" stroke="none" /><path d="M 119.71291397450082 107.23885506374661 l 17.454796905617677 6.409643197872204 a39.59444704583575,39.59444704583575 0 0,0 -0.23977136931258447,0.6360220436539561 l -17.342194852490653 -6.708333521720318" fill="#ff6a09" stroke="none" /><path d="M 119.58574465831526 107.57618678355244 l 12.97187424667441 5.017799626211031 a34.90855256884549,34.90855256884549 0 0,0 -0.22098996350081046,0.5570390693508069 l -12.883825608207475 -5.2397397127754015" fill="#ff1902" stroke="none" /><path d="M 119.31412917781788 108.2440532568976 l 19.00937062276437 8.11396995180913 a41.66864000974613,41.66864000974613 0 0,0 -0.2864542761828378,0.6554634426702363 l -18.867282464564564 -8.439095464255212" fill="#ff8c0c" stroke="none" /><path d="M 119.16976305983485 108.57439118712176 l 33.22205495862304 14.859802615512681 a57.39393726221123,57.39393726221123 0 0,0 -0.4099991529745693,0.8959221423157979 l -32.962071340793415 -15.427913740043168" fill="#89ff24" stroke="none" /><path d="M 119.0197475246899 108.90220220490707 l 13.943713845059396 6.526362138874125 a36.395472014869526,36.395472014869526 0 0,0 -0.2697090648501549,0.5635882133654746 l -13.82962552224933 -6.764762854304704" fill="#ff3304" stroke="none" /><path d="M 118.70294669586154 109.54985784667822 l 44.54006791334725 22.742476037103764 a71.01037758329589,71.01037758329589 0 0,0 -0.563659855341789,1.0808920939556346 l -44.14309998903051 -23.503714374163902" fill="#39ff8c" stroke="none" /><line stroke="#e1ed5e" stroke-width="0.3" x1="174.33088141563837" x2="178.70328620479359" y1="141.23008692659167" y2="143.65538615756765" /><path d="M 175.20536237346943 141.71514677278685 a86.0,86.0 0 0,1 -30.301960400862466,31.631185727798858" fill="none" id="id53" stroke="none" /><text fill="#e1ed5e" style="font-size:6.75px; font-family:Arial;" text-anchor="middle"><textPath startOffset="22.145653131862474" xlink:href="#id53">May</textPath></text><path d="M 118.18653347947321 110.5 l 22.15854375460115 12.793241201569069 a46.58648240313815,46.58648240313815 0 0,0 -0.4058043992433826,0.6891445872308563 l -21.935665645228003 -13.171736957093474" fill="#ffda14" stroke="none" /><path d="M 118.00360718960297 110.81064883170644 l 31.051165965311768 18.64533298970645 a57.21910200574238,57.21910200574238 0 0,0 -0.5128794305987965,0.8377500054975568 l -30.726518570257568 -19.175620111328563" fill="#8bff24" stroke="none" /><path d="M 117.81537515405839 111.11811171558189 l 25.855077785612544 16.135480771507407 a51.476856580490065,51.476856580490065 0 0,0 -0.47427909709696264,0.7456455163005856 l -25.57428099688969 -16.576939962486666" fill="#dbff1b" stroke="none" /><path d="M 117.423217284605 111.72311816256416 l 46.38120199006037 31.207342626190545 a76.90272025430632,76.90272025430632 0 0,0 -0.7463601740308555,1.0889617991550518 l -45.8386520792142 -31.99893916041564" fill="#42ffd8" stroke="none" /><path d="M 116.79662413953412 112.60449989151573 l 31.287633159410973 23.478823213967456 a60.11740185941048,60.11740185941048 0 0,0 -0.6265035487394593,0.8201132563340523 l -30.87997763331721 -24.012457383542387" fill="#66ff29" stroke="none" /><path d="M 116.35404254752997 113.17365903436017 l 38.56527299434895 31.065454031810855 a70.52113402711224,70.52113402711224 0 0,0 -0.7675156901331217,0.9362443456568412 l -38.0263104849772 -31.722900659166193" fill="#38ff85" stroke="none" /><path d="M 116.1254893667686 113.45245675266167 l 11.12856589071024 9.28384546719187 a35.49257621827736,35.49257621827736 0 0,0 -0.39431480889820025,0.4645018533915958 l -10.967556518304924 -9.473514103033022" fill="#ff2303" stroke="none" /><path d="M 115.89218393027572 113.72728997021213 l 20.956024615918285 18.10131494750593 a48.69138079857656,48.69138079857656 0 0,0 -0.5518099957447902,0.6278584807937849 l -20.64220355621491 -18.458385706111006" fill="#fffa17" stroke="none" /><path d="M 114.13192950727249 115.5334660781643 l 28.80255152066552 31.659049585592484 a63.80049526306437,63.80049526306437 0 0,0 -0.8164487801511814,0.7300735336841983 l -28.25483771369096 -32.14881864916007" fill="#38ff2e" stroke="none" /><line stroke="#e1ed5e" stroke-width="0.3" x1="143.1302829299769" x2="145.66735839644613" y1="173.24464959558577" y2="177.55315839532614" /><path d="M 143.63769802327073 174.10635135553383 a86.0,86.0 0 0,1 -40.68552437913181,11.842963189579606" fill="none" id="id54" stroke="none" /><text fill="#e1ed5e" style="font-size:6.75px; font-family:Arial;" text-anchor="middle"><textPath startOffset="21.407464694133747" xlink:href="#id54">June</textPath></text><line stroke="#e1ed5e" stroke-width="0.3" x1="101.45913802915013" x2="101.54496967792366" y1="184.9874750549273" y2="189.98673829345242" /><path d="M 101.47630435890484 185.9873277026323 a86.0,86.0 0 0,1 -42.54439059252881,-10.42667462771756" fill="none" id="id55" stroke="none" /><text fill="#e1ed5e" style="font-size:6.75px; font-family:Arial;" text-anchor="middle"><textPath startOffset="22.145653131862474" xlink:href="#id55">July</textPath></text><path d="M 93.95794788825049 120.11202640906438 l -3.5954090072002565 11.967947241564175 a33.496348550913595,33.496348550913595 0 0,0 -0.5492753041954179,-0.1701668933061557 l 3.8003249442673077 -11.904463760451371" fill="#ff0000" stroke="none" /><line stroke="#e1ed5e" stroke-width="0.3" x1="58.13341422392154" x2="55.67067388415222" y1="173.97424548756322" y2="178.32567169271397" /><path d="M 57.64086615596768 174.84453072859336 a86.0,86.0 0 0,1 -31.369924170532247,-30.572349798747897" fill="none" id="id56" stroke="none" /><text fill="#e1ed5e" style="font-size:6.75px; font-family:Arial;" text-anchor="middle"><textPath startOffset="22.145653131862474" xlink:href="#id56">August</textPath></text><path d="M 85.08716467003676 114.78537596483092 l -25.822135786664482 25.601435097566416 a57.36229057196265,57.36229057196265 0 0,0 -0.6872909249584899,-0.7052210360332157 l 26.257813512773783 -25.15439136946546" fill="#8aff24" stroke="none" /><path d="M 84.58840730492382 114.26474011684316 l -26.769725301035898 24.777658089845477 a57.476712202584906,57.476712202584906 0 0,0 -0.6639991680188895,-0.7298514011864338 l 27.191122169896666 -24.314469113101367" fill="#88ff25" stroke="none" /><path d="M 84.3458050057657 113.99807769240083 l -18.156649296787002 16.235787760642427 a45.35702604783972,45.35702604783972 0 0,0 -0.5140223986251323,-0.5848631318451449 l 18.432682759370728 -15.921712350985983" fill="#ffc712" stroke="none" /><path d="M 83.64595745247003 113.17365903436017 l -12.111608762527784 9.756254683292862 a36.55234941292838,36.55234941292838 0 0,0 -0.3894279810757755,-0.4920295324807994 l 12.277303174245121 -9.546905206897382" fill="#ff3605" stroke="none" /><path d="M 81.99639281039703 110.81064883170644 l -27.790132644143593 16.687176177442662 a53.415325405679724,53.415325405679724 0 0,0 -0.4652889189843823,-0.7901623063092282 l 28.072495273257747 -16.207662702839876" fill="#bfff1e" stroke="none" /><line stroke="#e1ed5e" stroke-width="0.3" x1="26.387840678322732" x2="22.057713659400548" y1="142.50000000000003" y2="145.00000000000006" /><path d="M 25.521815274538298 143.00000000000003 a86.0,86.0 0 0,1 -11.493303480769221,-40.785679425670985" fill="none" id="id57" stroke="none" /><text fill="#e1ed5e" style="font-size:6.75px; font-family:Arial;" text-anchor="middle"><textPath startOffset="21.40746469413373" xlink:href="#id57">September</textPath></text><path d="M 81.63589988554817 110.18625677009913 l -31.00885247115243 17.200087749941467 a56.459722928745265,56.459722928745265 0 0,0 -0.46284780293397615,-0.8515878257640047 l 31.299545623701736 -16.665245090702875" fill="#96ff23" stroke="none" /><path d="M 81.29705330413844 109.54985784667822 l -32.40563293163783 16.546547074170554 a57.38561894179887,57.38561894179887 0 0,0 -0.4404485257827301,-0.8811920963360034 l 32.6849013706323 -15.987823121670797" fill="#89ff24" stroke="none" /><path d="M 79.03789590574601 101.26102812881392 l -29.29080946040503 1.762062361641663 a50.343762243653536,50.343762243653536 0 0,0 -0.04449048609611517,-0.863103544535754 l 29.316741535957714 -1.2589870237291783" fill="#ebff1a" stroke="none" /><line stroke="#e1ed5e" stroke-width="0.3" x1="15.003131293944662" x2="10.003315487706104" y1="100.72959589197737" y2="100.7725132973878" /><path d="M 14.003168132696942 100.73817937305945 a86.0,86.0 0 0,1 10.791469493833604,-42.45332614584628" fill="none" id="id58" stroke="none" /><text fill="#e1ed5e" style="font-size:6.75px; font-family:Arial;" text-anchor="middle"><textPath startOffset="22.145653131862435" xlink:href="#id58">October</textPath></text><path d="M 79.00696218219943 99.45929381324524 l -61.12284231872805 -1.5743076004821186 a82.14311324704548,82.14311324704548 0 0,0 0.04840698749930222,-1.4093166243861432 l 61.08681064423189 2.6233304894324005" fill="#4ae7ff" stroke="none" /><path d="M 79.03789590574601 98.7389718711861 l -27.09497830408736 -1.62996661200736 a48.14396139945722,48.14396139945722 0 0,0 0.05670909042117359,-0.8245377287892922 l 27.06300525250112 2.094847764950977" fill="#fff216" stroke="none" /><path d="M 79.22317932658666 96.9465228501225 l -62.33046202024003 -9.160431449632467 a84.0,84.0 0 0,0 0.2219140314469299,-1.4248472722742 l 62.16402649665483 10.229066903838117" fill="#4dd2ff" stroke="none" /><path d="M 79.48165901384962 95.52812308129327 l -30.23997184979444 -6.590661117714879 a51.94984186461893,51.94984186461893 0 0,0 0.19738252974255524,-0.8697038455665691 l 30.12237845849422 7.108799297220456" fill="#d4ff1c" stroke="none" /><path d="M 79.94057633289273 93.78553927170692 l -30.03484632198784 -9.304872166111823 a52.44316522891913,52.44316522891913 0 0,0 0.2737914916863244,-0.8576479481357002 l 29.87069011452426 9.819089147938914" fill="#cdff1d" stroke="none" /><path d="M 80.05021161711548 93.44210830539832 l -34.749369980972006 -11.42280812293549 a57.578672194160895,57.578672194160895 0 0,0 0.31672266880626126,-0.936334292395576 l 34.548161890593384 12.017644089805227" fill="#87ff25" stroke="none" /><path d="M 80.83023694016515 91.42560881287825 l -14.572393626215584 -6.518046315642275 a36.96369580549023,36.96369580549023 0 0,0 0.26405374319980385,-0.5770050830050016 l 14.458355418160734 6.767240380861948" fill="#ff3d05" stroke="none" /><line stroke="#e1ed5e" stroke-width="0.3" x1="26.387840678322718" x2="22.05771365940052" y1="57.49999999999999" y2="54.99999999999999" /><path d="M 25.521815274538284 56.99999999999999 a86.0,86.0 0 0,1 29.574782752854787,-30.34633250058573" fill="none" id="id59" stroke="none" /><text fill="#e1ed5e" style="font-size:6.75px; font-family:Arial;" text-anchor="middle"><textPath startOffset="21.40746469413373" xlink:href="#id59">November</textPath></text><path d="M 82.576782715395 88.27688183743585 l -30.703192179882674 -20.658477938556015 a58.00619841016656,58.00619841016656 0 0,0 0.5629646935390095,-0.82138231227711 l 30.34403774952835 21.18249498590316" fill="#81ff25" stroke="none" /><path d="M 83.2033758604659 87.39550010848427 l -22.98304928036398 -17.246908649888013 a49.73458564519804,49.73458564519804 0 0,0 0.5183007488359271,-0.678472317903779 l 22.683596554173747 17.638901881032677" fill="#f4ff19" stroke="none" /><line stroke="#e1ed5e" stroke-width="0.3" x1="56.869717070023135" x2="54.33264160355391" y1="26.7553504044142" y2="22.446841604673864" /><path d="M 56.362301976729285 25.89364864446614 a86.0,86.0 0 0,1 42.16139366436587,-11.88097634709845" fill="none" id="id60" stroke="none" /><text fill="#e1ed5e" style="font-size:6.75px; font-family:Arial;" text-anchor="middle"><textPath startOffset="22.145653131862474" xlink:href="#id60">December</textPath></text><path d="M 89.65649057296885 81.72400993836675 l -24.687870664035817 -43.621101917273556 a71.12276419354112,71.12276419354112 0 0,0 1.0677078460198515,-0.5922395438504937 l 23.935418629859864 44.0384743765572" fill="#39ff8d" stroke="none" /><path d="M 90.61103034731259 81.2157712731953 l -25.661166102077104 -51.33952193784904 a78.39548726620652,78.39548726620652 0 0,0 1.2089321454889623,-0.5913492927210179 l 24.776073707326088 51.77246498066728" fill="#44ffeb" stroke="none" /><path d="M 91.5904679813234 80.7573450057729 l -15.909248313770048 -36.4034735630322 a60.72803883107722,60.72803883107722 0 0,0 0.9588232204796788,-0.40926461766978706 l 15.281990018119938 36.67121283036139" fill="#5eff2a" stroke="none" /><path d="M 92.592206182469 80.34994680014964 l -13.118213404891572 -34.79761959398392 a58.18819506703559,58.18819506703559 0 0,0 0.9376912598262217,-0.3443332189854948 l 12.518932993411223 35.01768366197813" fill="#7fff26" stroke="none" /><path d="M 94.30408787586887 79.78721728523814 l -9.855114976439383 -34.972326346792286 a57.33437630268864,57.33437630268864 0 0,0 0.9496172592326276,-0.2588224067642299 l 9.253316316272079 35.13634924770066" fill="#8aff24" stroke="none" /><path d="M 96.76829788921471 79.25015418208739 l -3.1342681228506466 -20.124249720945283 a41.366861896150915,41.366861896150915 0 0,0 0.7025962427691005,-0.1032574524566425 l 2.7883467744738613 20.175088246700813" fill="#ff870c" stroke="none" /><path d="M 97.48249496171623 79.15144685158666 l -4.166420231475202 -34.50393636302385 a55.75457785801527,55.75457785801527 0 0,0 0.9511839794252324,-0.10658214887451928 l 3.5735003504491707 34.57037427240534" fill="#9fff22" stroke="none" /><path d="M 98.5590905019552 79.04949213459386 l -3.4698401288764216 -50.45071394863317 a71.56989547593282,71.56989547593282 0 0,0 1.2264205287762964,-0.07377841354034861 l 2.603275247967641 50.50284433999822" fill="#3aff93" stroke="none" /><path d="M 99.27912038922189 79.0123766808444 l -1.3189187655991212 -38.398880793814335 a59.42152512495844,59.42152512495844 0 0,0 1.019748881554562,-0.02626511389053623 l 0.6595565699738156 38.41586362505491" fill="#6fff28" stroke="none" /></svg>